<svg xmlns="http://www.w3.org/2000/svg" width="78.443" height="78.443" viewBox="0 0 78.443 78.443">
  <path id="Icon_metro-instagram" data-name="Icon metro-instagram" d="M67.991,1.928h-52.4A13.061,13.061,0,0,0,2.571,14.951v52.4A13.061,13.061,0,0,0,15.593,80.371h52.4A13.061,13.061,0,0,0,81.013,67.348v-52.4A13.061,13.061,0,0,0,67.991,1.928ZM27.682,36.247H55.9a14.938,14.938,0,1,1-28.221,0Zm43.526,0V65.663a4.917,4.917,0,0,1-4.9,4.9H17.279a4.917,4.917,0,0,1-4.9-4.9V36.247h7.669a22.292,22.292,0,1,0,43.495,0l7.669,0Zm0-17.163a2.459,2.459,0,0,1-2.451,2.451h-4.9A2.459,2.459,0,0,1,61.4,19.087v-4.9a2.459,2.459,0,0,1,2.451-2.451h4.9a2.459,2.459,0,0,1,2.451,2.451Z" transform="translate(-2.571 -1.928)" fill="#7934cb"/>
</svg>
