<svg xmlns="http://www.w3.org/2000/svg" width="68.148" height="78.442" viewBox="0 0 68.148 78.442">
    <path id="Icon_simple-tiktok" data-name="Icon simple-tiktok"
          d="M38.16.065C42.442,0,46.691.033,50.94,0,51.2,5,53,10.1,56.659,13.629c3.661,3.628,8.825,5.295,13.858,5.85V32.651a34.983,34.983,0,0,1-13.727-3.17,40.382,40.382,0,0,1-5.295-3.04c-.033,9.544.033,19.087-.065,28.6a24.964,24.964,0,0,1-4.412,12.877A24.35,24.35,0,0,1,27.7,78.408a23.832,23.832,0,0,1-13.335-3.366A24.647,24.647,0,0,1,2.437,56.379c-.065-1.634-.1-3.268-.033-4.87A24.605,24.605,0,0,1,30.937,29.677c.065,4.837-.131,9.674-.131,14.512a11.214,11.214,0,0,0-14.315,6.929c-.686,1.667-.49,3.5-.458,5.262.784,5.36,5.948,9.87,11.439,9.38A10.98,10.98,0,0,0,36.526,60.5a7.541,7.541,0,0,0,1.34-3.464c.327-5.85.2-11.668.229-17.518.033-13.172-.033-26.31.065-39.449Z"
          transform="translate(-2.369)" fill="#7934cb"/>
</svg>
