<svg xmlns="http://www.w3.org/2000/svg" width="1050.906" height="1050.923" viewBox="0 0 1050.906 1050.923">
  <g id="Groupe_31" data-name="Groupe 31" transform="translate(2030 2229)">
    <g id="Groupe_29" data-name="Groupe 29" transform="translate(-2030 -2229)">
      <path id="Tracé_59" data-name="Tracé 59" d="M336.169,261.191A405.087,405.087,0,0,1,285.7,171.568l-114.513,30.68a521.217,521.217,0,0,0,81.087,142.843Z" transform="translate(-137.733 507.78)" fill="#7934cb" opacity="0"/>
      <path id="Tracé_60" data-name="Tracé 60" d="M358.413,196.682A405.141,405.141,0,0,1,266,249.214l30.68,114.513a521.044,521.044,0,0,0,145.5-83.274Z" transform="translate(413.317 653.737)" fill="#7934cb"/>
      <path id="Tracé_61" data-name="Tracé 61" d="M397.306,323.846,366.585,209.2a404.835,404.835,0,0,1-105.4-.933l-30.6,114.179A521.138,521.138,0,0,0,397.306,323.846Z" transform="translate(207.487 721.049)" fill="#7934cb" opacity="0"/>
      <path id="Tracé_62" data-name="Tracé 62" d="M278.357,243.188a404.734,404.734,0,0,1,88.049-51.422L335.692,77.117a521.036,521.036,0,0,0-141.018,82.388Z" transform="translate(-1.237 -41.149)" fill="#7934cb" opacity="0"/>
      <path id="Tracé_63" data-name="Tracé 63" d="M172.3,299.97,286.95,269.249a404.49,404.49,0,0,1,.511-101.966L173.146,136.651A521.013,521.013,0,0,0,172.3,299.97Z" transform="translate(-166.277 304.85)" fill="#7934cb" opacity="0"/>
      <path id="Tracé_64" data-name="Tracé 64" d="M230.765,78.957,261.452,193.47a404.73,404.73,0,0,1,102.851-1.1l30.707-114.6A521.175,521.175,0,0,0,230.765,78.957Z" transform="translate(208.516 -71.837)" fill="#e4d6f5"/>
      <path id="Tracé_65" data-name="Tracé 65" d="M285.875,272.264a409.784,409.784,0,0,1,50.789-87.974l-83.744-83.751A529.892,529.892,0,0,0,171.471,241.6Z" transform="translate(-136.088 94.975)" fill="#7934cb" opacity="0"/>
      <path id="Tracé_66" data-name="Tracé 66" d="M367.435,249.166a410.194,410.194,0,0,1-89.6-53.023L194.3,279.69a529.943,529.943,0,0,0,142.434,84.037Z" transform="translate(-3.411 650.604)" fill="#7934cb" opacity="0"/>
      <path id="Tracé_67" data-name="Tracé 67" d="M344.192,171.867a409.987,409.987,0,0,1-53.309,92.327l83.662,83.669a529.647,529.647,0,0,0,83.928-145.377Z" transform="translate(557.908 509.518)" fill="#7934cb"/>
      <path id="Tracé_68" data-name="Tracé 68" d="M417.213,136.329,302.7,167.016a404.806,404.806,0,0,1,.708,106.3l114.438,30.667A521.059,521.059,0,0,0,417.213,136.329Z" transform="translate(626.586 302.978)" fill="#945dd5"/>
      <path id="Tracé_69" data-name="Tracé 69" d="M265.834,190.855a409.956,409.956,0,0,1,90.719,51.075l83.86-83.867A529.668,529.668,0,0,0,296.419,76.73Z" transform="translate(412.329 -43.398)" fill="#c9aeea"/>
      <path id="Tracé_70" data-name="Tracé 70" d="M290.589,183.434A404.88,404.88,0,0,1,344.1,274.242l114.649-30.714A521.094,521.094,0,0,0,374.17,99.847Z" transform="translate(556.2 90.953)" fill="#af85e0"/>
    </g>
    <g id="Groupe_30" data-name="Groupe 30" transform="translate(-1996.545 -1932.379)">
      <path id="Tracé_71" data-name="Tracé 71" d="M602.633,568.406H529.215q0-23.317-43.841-146.487H284.618q-43.149,121.437-43.146,146.487H171.188q0-12.874,89.766-222.514t89.772-230.511h80.72q0,20.527,85.6,227.207T602.633,568.406ZM469.374,376.341Q387.6,172.1,387.605,159.223h-3.828q0,10.79-84.548,217.119Z" transform="translate(-171.188 -115.382)"/>
      <path id="Tracé_72" data-name="Tracé 72" d="M513.882,517.257l-2.084,51.15H237.964q4.179-85.941,4.176-238,0-130.827-4.176-215.028h64.719q-4.179,70.287-4.176,215.028,0,118.995-3.828,190.675Q399.063,521.085,513.882,517.257Z" transform="translate(216.9 -115.382)"/>
    </g>
  </g>
</svg>
