<svg xmlns="http://www.w3.org/2000/svg" width="204.826" height="70.18" viewBox="0 0 204.826 70.18">
    <g id="Groupe_146" data-name="Groupe 146" transform="translate(9677 4603.994)">
        <g id="Groupe_145" data-name="Groupe 145">
            <g id="Groupe_144" data-name="Groupe 144">
                <g id="logo" transform="translate(-10383.043 -4634.746)">
                    <g id="Groupe_23" data-name="Groupe 23" transform="translate(706.043 46.435)">
                        <path id="Tracé_38" data-name="Tracé 38"
                              d="M726.485,101.573a8.843,8.843,0,0,1-4.028,7.94q-4.028,2.631-10.826,2.631-.861,0-1.49-.046,0,5.076.372,12.27h-4.47q.349-6.612.349-15.926,0-8.009-.349-14.389h3.329q.535,0,3.062-.07t4.3-.07a11.358,11.358,0,0,1,7.113,2.037A6.706,6.706,0,0,1,726.485,101.573Zm-3.888,1.35q0-5.984-8.172-5.984a32.66,32.66,0,0,0-4.494.349q.163,3.795.163,11.828.815.047,2,.047Q722.6,109.163,722.6,102.923Z"
                              transform="translate(-706.043 -90.933)"/>
                        <path id="Tracé_39" data-name="Tracé 39"
                              d="M809.99,118.317h-4.238q.512-6.123.512-13.178,0-3.772-1.408-5.087a5.492,5.492,0,0,0-3.9-1.316,10.391,10.391,0,0,0-6.542,2.4q0,12.712.186,17.183h-4.1q.21-6.147.21-17.369a135.294,135.294,0,0,0-.675-15.39l4.424-.233q-.187,7.1-.186,13.178h.14a11.35,11.35,0,0,1,7.66-3.073,8.87,8.87,0,0,1,5.821,1.735q2.1,1.734,2.1,6.088,0,.443-.047,1.735t-.047,2.27Q809.9,110.61,809.99,118.317Z"
                              transform="translate(-765.217 -84.882)"/>
                        <path id="Tracé_40" data-name="Tracé 40"
                              d="M891.389,122.121q0,1.49-3.516,9.5a102.436,102.436,0,0,0-5.006,12.9q-1.607,6.077-2.98,7.73-1.863,2.282-6.635,2.281l-.186-3.26a6.489,6.489,0,0,0,4.843-1.979,6.813,6.813,0,0,0,1.932-4.959q0-2.584-4.284-12.293t-4.284-9.918h4.82a79.393,79.393,0,0,0,2.934,8.475q2.933,7.846,2.934,9.662h.233q0-1.513,2.479-8.778t2.48-9.36Z"
                              transform="translate(-822.449 -110.805)"/>
                        <path id="Tracé_41" data-name="Tracé 41"
                              d="M965.448,136.32q0,6.8-8.684,6.8a31.839,31.839,0,0,1-7.171-.768l.722-3.422a18.138,18.138,0,0,0,6.566,1.164q5.076,0,5.075-2.887a2.615,2.615,0,0,0-1.129-2.223,17.706,17.706,0,0,0-3.737-1.851,18.922,18.922,0,0,1-4.8-2.515,5.423,5.423,0,0,1-2.188-4.33,6.052,6.052,0,0,1,2-4.552q2-1.9,6.1-1.9a24.721,24.721,0,0,1,6.426.675l-.722,3.353a15.666,15.666,0,0,0-5.821-1q-4.47,0-4.47,2.584a2.57,2.57,0,0,0,1,2.107,16.672,16.672,0,0,0,3.911,1.944,19.108,19.108,0,0,1,4.657,2.422A5.516,5.516,0,0,1,965.448,136.32Z"
                              transform="translate(-877.626 -109.196)"/>
                        <path id="Tracé_42" data-name="Tracé 42"
                              d="M1023.871,121.536h-4.214q.326-4.657.326-10.64a65.723,65.723,0,0,0-.815-11.292l4.656-.629q-.279,4.866-.279,11.921Q1023.545,116.484,1023.871,121.536Zm.978-29.1a3.016,3.016,0,0,1-.768,2.06,2.73,2.73,0,0,1-2.165.873,2.332,2.332,0,0,1-1.851-.756,2.677,2.677,0,0,1-.663-1.828,2.9,2.9,0,0,1,.792-2.026,2.823,2.823,0,0,1,2.189-.861,2.278,2.278,0,0,1,1.8.757A2.614,2.614,0,0,1,1024.849,92.433Z"
                              transform="translate(-926.642 -88.102)"/>
                        <path id="Tracé_43" data-name="Tracé 43"
                              d="M1071.059,138.846l-.233,3.12a10.223,10.223,0,0,1-5.052,1.071q-6.03,0-9.22-3.329a11.191,11.191,0,0,1-3.19-8.033,12.111,12.111,0,0,1,3.353-8.568,11.574,11.574,0,0,1,8.871-3.585,15.143,15.143,0,0,1,4.517.559l-.629,3.655a14.147,14.147,0,0,0-4.959-.908,6.547,6.547,0,0,0-5.262,2.3,8.614,8.614,0,0,0-1.956,5.774,8.9,8.9,0,0,0,2.328,6.286,8.534,8.534,0,0,0,6.589,2.515A19.4,19.4,0,0,0,1071.059,138.846Z"
                              transform="translate(-950.734 -108.974)"/>
                        <path id="Tracé_44" data-name="Tracé 44"
                              d="M1134.006,87.576a11.2,11.2,0,0,1-1.607,5.809,23.84,23.84,0,0,1-4.912,5.6l-1.4-1.537q3.539-3.958,3.539-7.311a2.913,2.913,0,0,1-2-2.933,3.593,3.593,0,0,1,.838-2.363,3.046,3.046,0,0,1,2.491-1.013,2.661,2.661,0,0,1,2.2,1.094A4.2,4.2,0,0,1,1134.006,87.576Z"
                              transform="translate(-1001.97 -83.827)"/>
                    </g>
                    <g id="Groupe_24" data-name="Groupe 24" transform="translate(840.69 30.751)">
                        <path id="Tracé_45" data-name="Tracé 45"
                              d="M1180.293,190.266a27.024,27.024,0,0,1-3.371-5.985l-7.647,2.049a34.812,34.812,0,0,0,5.415,9.539Z"
                              transform="translate(-1167.041 -138.914)" fill="#7934cb" opacity="0"/>
                        <path id="Tracé_46" data-name="Tracé 46"
                              d="M1321.408,222.941a27.04,27.04,0,0,1-6.171,3.508l2.049,7.647a34.8,34.8,0,0,0,9.716-5.561Z"
                              transform="translate(-1269.873 -166.151)" fill="#7934cb"/>
                        <path id="Tracé_47" data-name="Tracé 47"
                              d="M1271.85,248.49l-2.051-7.656a27.03,27.03,0,0,1-7.039-.062l-2.043,7.625A34.8,34.8,0,0,0,1271.85,248.49Z"
                              transform="translate(-1231.463 -178.712)" fill="#7934cb" opacity="0"/>
                        <path id="Tracé_48" data-name="Tracé 48"
                              d="M1211.018,49.97a27.021,27.021,0,0,1,5.88-3.434l-2.051-7.656a34.8,34.8,0,0,0-9.417,5.5Z"
                              transform="translate(-1192.512 -36.478)" fill="#7934cb" opacity="0"/>
                        <path id="Tracé_49" data-name="Tracé 49"
                              d="M1162.117,141.435l7.656-2.051a27.026,27.026,0,0,1,.034-6.809l-7.634-2.046A34.794,34.794,0,0,0,1162.117,141.435Z"
                              transform="translate(-1161.715 -101.046)" fill="#7934cb" opacity="0"/>
                        <path id="Tracé_50" data-name="Tracé 50"
                              d="M1260.99,31.227l2.049,7.647a27.023,27.023,0,0,1,6.868-.074l2.051-7.653A34.813,34.813,0,0,0,1260.99,31.227Z"
                              transform="translate(-1231.655 -30.751)" fill="#e4d6f5"/>
                        <path id="Tracé_51" data-name="Tracé 51"
                              d="M1177.351,86.4a27.394,27.394,0,0,1,3.392-5.875l-5.593-5.592a35.376,35.376,0,0,0-5.439,9.42Z"
                              transform="translate(-1167.348 -61.881)" fill="#7934cb" opacity="0"/>
                        <path id="Tracé_52" data-name="Tracé 52"
                              d="M1216.416,225.652a27.387,27.387,0,0,1-5.983-3.541l-5.579,5.579a35.379,35.379,0,0,0,9.512,5.612Z"
                              transform="translate(-1192.107 -165.566)" fill="#7934cb" opacity="0"/>
                        <path id="Tracé_53" data-name="Tracé 53"
                              d="M1357.1,184.741a27.4,27.4,0,0,1-3.56,6.166l5.587,5.587a35.376,35.376,0,0,0,5.6-9.708Z"
                              transform="translate(-1296.855 -139.238)" fill="#7934cb"/>
                        <path id="Tracé_54" data-name="Tracé 54"
                              d="M1379.375,130.033l-7.647,2.049a27.037,27.037,0,0,1,.047,7.1l7.642,2.048A34.784,34.784,0,0,0,1379.375,130.033Z"
                              transform="translate(-1309.671 -100.696)" fill="#945dd5"/>
                        <path id="Tracé_55" data-name="Tracé 55"
                              d="M1314.976,45.905a27.383,27.383,0,0,1,6.058,3.411l5.6-5.6a35.383,35.383,0,0,0-9.616-5.431Z"
                              transform="translate(-1269.689 -36.058)" fill="#c9aeea"/>
                        <path id="Tracé_56" data-name="Tracé 56"
                              d="M1353.084,79.453a27.037,27.037,0,0,1,3.574,6.064l7.656-2.051a34.8,34.8,0,0,0-5.648-9.595Z"
                              transform="translate(-1296.536 -61.13)" fill="#af85e0"/>
                    </g>
                    <g id="Groupe_25" data-name="Groupe 25" transform="translate(842.924 50.56)">
                        <path id="Tracé_57" data-name="Tracé 57"
                              d="M1198.087,128.039h-4.9q0-1.557-2.927-9.782H1176.85q-2.881,8.109-2.881,9.782h-4.694q0-.86,5.995-14.859t5.995-15.393h5.39q0,1.37,5.716,15.173T1198.087,128.039Zm-8.9-12.826q-5.46-13.639-5.46-14.5h-.256q0,.72-5.646,14.5Z"
                              transform="translate(-1169.275 -97.787)"/>
                        <path id="Tracé_58" data-name="Tracé 58"
                              d="M1290.5,124.624l-.139,3.416h-18.287q.279-5.739.279-15.893,0-8.737-.279-14.359h4.322q-.279,4.693-.279,14.359,0,7.946-.256,12.733Q1282.83,124.879,1290.5,124.624Z"
                              transform="translate(-1241.697 -97.787)"/>
                    </g>
                </g>
            </g>
        </g>
    </g>
</svg>
